<svg width="176" height="48" viewBox="0 0 176 48" fill="none" xmlns="http://www.w3.org/2000/svg" role="img" aria-labelledby="title desc">
  <title id="title">SIN AI logo</title>
  <desc id="desc">Minimal SIN AI wordmark with circular monogram</desc>
  <rect width="176" height="48" rx="24" fill="#0D0D0B"/>
  <circle cx="24" cy="24" r="14" fill="#F5F1E8"/>
  <path d="M18.5 28.3c1.6 1.4 3.7 2.2 6 2.2 2.7 0 4.6-1.1 4.6-2.9 0-1.6-1.2-2.4-4.8-3.2-3.7-.9-5.6-2.4-5.6-5.1 0-3 2.7-5.2 6.5-5.2 2.4 0 4.5.7 6.2 2l-1.7 2.4c-1.5-1.1-3-1.6-4.6-1.6-2 0-3.3.9-3.3 2.2 0 1.4 1 2.1 4.5 2.9 4 .9 5.9 2.5 5.9 5.3 0 3.4-2.9 5.6-7.5 5.6-3 0-5.6-.9-7.6-2.7l1.4-1.9Z" fill="#0D0D0B"/>
  <path d="M52 18.1h2.6v12H52v-12Zm6.4 0h2.5l5.7 7.6v-7.6h2.5v12h-2.2l-6-8v8h-2.5v-12Zm22.8 0h2.5l5.3 12h-2.8l-1.2-2.9h-5.2l-1.2 2.9h-2.7l5.3-12Zm2.9 6.8-1.7-4-1.7 4h3.4Zm7.4-6.8h2.6v12h-2.6v-12Z" fill="#F5F1E8"/>
  <path d="M111 24h43" stroke="#F5F1E8" stroke-opacity=".28"/>
  <circle cx="161" cy="24" r="3" fill="#F5F1E8" fill-opacity=".85"/>
</svg>
